# xmcd
#
# Track frame offsets:
#	187
#	13120
#	48790
#	60745
#	68760
#	89132
#	95997
#	103922
#	115412
#	120667
#	128347
#	144907
#	154282
#	165770
#	189862
#	204550
#	218267
#	247467
#	278025
#	287702
#	311667
#
# Disc length: 4314 seconds
#
# Revision: 1
# Processed by: cddbd v1.5.1PL0 Copyright (c) Steve Scherf et al.
# Submitted via: CDex 1.50Beta5
#
DISCID=3110d815
DTITLE=Various Artist - おしゃれ・指令 レッツゴー声優大作戦
DYEAR=1995
DGENRE=Unclassifiable
TTITLE0=オープニング・作戦開始
TTITLE1=クイズ・アニメでドン
TTITLE2=サボリ
TTITLE3=ある新聞記者
TTITLE4=Broken Time-Broken Heart
TTITLE5=飛び込み自殺
TTITLE6=若奥サマと危ない八百屋
TTITLE7=女子高生と危ない花屋
TTITLE8=応援団員と危ないスポーツ用品店
TTITLE9=マット洗い
TTITLE10=恋のヴァージンボーイ
TTITLE11=痴漢電車
TTITLE12=イヤしん坊万歳
TTITLE13=Daily News
TTITLE14=電話相談室
TTITLE15=先輩
TTITLE16=シビアなウィークエンド
TTITLE17=野球中継
TTITLE18=駅
TTITLE19=怪獣中継
TTITLE20=エンディング・作戦終了
EXTD=
EXTT0=
EXTT1=
EXTT2=
EXTT3=
EXTT4=
EXTT5=
EXTT6=
EXTT7=
EXTT8=
EXTT9=
EXTT10=
EXTT11=
EXTT12=
EXTT13=
EXTT14=
EXTT15=
EXTT16=
EXTT17=
EXTT18=
EXTT19=
EXTT20=
PLAYORDER=
